HIERARCHY
ROOT Hips
{
	OFFSET 0.00000 0.00000 0.00000
	CHANNELS 6 Xposition Yposition Zposition Zrotation Yrotation Xrotation 
	JOINT LHipJoint
	{
		OFFSET 0 0 0
		CHANNELS 3 Zrotation Yrotation Xrotation
		JOINT LeftHip
		{
			OFFSET 1.84395 -1.68683 0.74144
			CHANNELS 3 Zrotation Yrotation Xrotation
			JOINT LeftKnee
			{
				OFFSET 2.27037 -6.23779 0.00000
				CHANNELS 3 Zrotation Yrotation Xrotation
				JOINT LeftAnkle
				{
					OFFSET 2.56918 -7.05877 0.00000
					CHANNELS 3 Zrotation Yrotation Xrotation
					JOINT LeftToe
					{
						OFFSET 0.22276 -0.61202 1.71784
						CHANNELS 3 Zrotation Yrotation Xrotation
						End Site
						{
							OFFSET 0.00000 -0.00000 0.91613
						}
					}
				}
			}
		}
	}
	JOINT RHipJoint
	{
		OFFSET 0 0 0
		CHANNELS 3 Zrotation Yrotation Xrotation
		JOINT RightHip
		{
			OFFSET -1.76833 -1.68684 0.74144
			CHANNELS 3 Zrotation Yrotation Xrotation
			JOINT RightKnee
			{
				OFFSET -2.49360 -6.85110 0.00000
				CHANNELS 3 Zrotation Yrotation Xrotation
				JOINT RightAnkle
				{
					OFFSET -2.55538 -7.02085 0.00000
					CHANNELS 3 Zrotation Yrotation Xrotation
					JOINT RightToe
					{
						OFFSET -0.21516 -0.59115 1.68050
						CHANNELS 3 Zrotation Yrotation Xrotation
						End Site
						{
							OFFSET -0.00000 -0.00000 0.89604
						}
					}
				}
			}
		}
	}
	JOINT lowerback
	{
		OFFSET 0 0 0
		CHANNELS 3 Zrotation Yrotation Xrotation
		JOINT Chest
		{
			OFFSET 0.06382 1.72312 -0.19613
			CHANNELS 3 Zrotation Yrotation Xrotation
			JOINT Chest2
			{
				OFFSET -0.00055 1.73507 0.23859
				CHANNELS 3 Zrotation Yrotation Xrotation
				JOINT lowerneck
				{
					OFFSET 0 0 0
					CHANNELS 3 Zrotation Yrotation Xrotation
					JOINT Neck
					{
						OFFSET 0.03638 1.65562 0.09633
						CHANNELS 3 Zrotation Yrotation Xrotation
						JOINT Head
						{
							OFFSET 0.06388 1.62807 -0.32386
							CHANNELS 3 Zrotation Yrotation Xrotation
							End Site
							{
								OFFSET 0.00995 1.67644 -0.12021
							}
						}
					}
				}
				JOINT LeftCollar
				{
					OFFSET 0 0 0
					CHANNELS 3 Zrotation Yrotation Xrotation
					JOINT LeftShoulder
					{
						OFFSET 3.09648 1.42991 0.28122
CHANNELS 3 Zrotation Xrotation Yrotation
						JOINT LeftElbow
						{
OFFSET 0 -5.118780 -0.000000
CHANNELS 3 Zrotation Xrotation Yrotation
							JOINT LeftWrist
							{
OFFSET 0 -3.599710 0.000000
CHANNELS 3 Zrotation Xrotation Yrotation
								JOINT lhand
								{
									OFFSET 0 0 0
CHANNELS 3 Zrotation Xrotation Yrotation
									JOINT LFingers
									{
OFFSET 0 -0.628770 0.000000
CHANNELS 3 Zrotation Xrotation Yrotation
										End Site
										{
OFFSET 0 -0.506930 0.000000
										}
									}
								}
								JOINT LThumb
								{
OFFSET 0 0.000000 0.000000
CHANNELS 3 Zrotation Xrotation Yrotation
									End Site
									{
OFFSET 0 -0.514670 0.514670
									}
								}
							}
						}
					}
				}
				JOINT RightCollar
				{
					OFFSET 0 0 0
					CHANNELS 3 Zrotation Yrotation Xrotation
					JOINT RightShoulder
					{
						OFFSET -3.33565 1.14597 0.05047
CHANNELS 3 Zrotation Xrotation Yrotation
						JOINT RightElbow
						{
OFFSET 0 -5.490200 0.000000
CHANNELS 3 Zrotation Xrotation Yrotation
							JOINT RightWrist
							{
OFFSET 0 -3.206590 -0.000000
CHANNELS 3 Zrotation Xrotation Yrotation
								JOINT rhand
								{
									OFFSET 0 0 0
CHANNELS 3 Zrotation Xrotation Yrotation
									JOINT RFingers
									{
OFFSET 0 -0.691880 0.000000
CHANNELS 3 Zrotation Xrotation Yrotation
										End Site
										{
OFFSET 0 -0.557810 0.000000
										}
									}
								}
								JOINT RThumb
								{
OFFSET 0 0.000000 0.000000
CHANNELS 3 Zrotation Xrotation Yrotation
									End Site
									{
OFFSET 0 -0.566330 0.566330
									}
								}
							}
						}
					}
				}
			}
		}
	}
}
MOTION
Frames: 6
Frame Time: 0.008333333333333333
0.019100 17.370700 8.524300 -9.827000 -0.491800 9.022200 0.000000 0.000000 0.000000 -17.976400 -40.619400 25.597600 0.067900 -1.680900 -4.624500 -3.868800 42.472300 -47.409100 0.752000 5.538900 15.452200 0.000000 0.000000 0.000000 26.683000 25.141200 6.412000 -0.020200 -0.916800 2.519800 0.813700 -20.653500 -22.026000 -0.022100 -0.959800 2.638100 6.880300 1.876600 -2.673300 3.369800 2.902900 -9.348000 -0.395200 1.079400 -8.224400 -16.558600 -13.136400 -1.088100 11.772500 -19.627800 20.935300 4.597000 -9.739100 9.614700 -0.000000 -0.000000 0.000000 -6.888500 12.310000 4.096700 7.320400 -12.445400 0.799300 15.970500 43.698800 10.228500 0.000000 0.000000 0.000000 -7.125000 0.000000 0.000000 -7.837200 19.401600 -4.833900 -0.000000 -0.000000 0.000000 1.816700 13.322100 -6.667400 -14.541200 -23.503200 -3.040600 10.738500 28.935600 34.571300 0.000000 0.000000 0.000000 7.125000 0.000000 -0.000000 47.982900 57.833800 -17.707200
0.012572 17.376813 8.543461 -9.451875 -0.346171 9.237129 0.000000 0.000000 0.000000 -18.467996 -41.090888 25.610074 0.065421 -1.650767 -4.541374 -3.864603 42.624659 -47.725570 0.733373 5.471103 15.257276 0.000000 0.000000 0.000000 26.288757 25.411966 6.524339 -0.016485 -0.828017 2.275705 0.844961 -20.998442 -22.373483 -0.012403 -0.676367 1.858775 6.294466 1.805549 -3.386893 3.345563 2.717591 -9.237628 -0.070383 1.045427 -7.710197 -15.993402 -13.217495 -1.385901 11.255009 -19.625243 20.993977 4.321274 -9.721185 9.569140 0.000000 0.000000 0.000000 -6.819726 12.304564 2.421007 7.408899 -12.590170 0.818511 16.668162 42.638438 9.000590 0.000000 0.000000 0.000000 -7.125000 0.000000 0.000000 -7.358492 20.626535 -4.330238 0.000000 0.000000 0.000000 1.731050 13.048044 -6.493637 -14.449928 -23.374171 -3.004384 10.817051 27.975454 35.164823 0.000000 0.000000 0.000000 7.125000 0.000000 0.000000 48.706475 58.235311 -18.560203
0.006195 17.381921 8.554469 -9.191703 -0.357501 9.520289 0.000000 0.000000 0.000000 -18.579174 -41.317101 25.304596 0.063221 -1.622352 -4.463017 -3.922777 42.741638 -47.760799 0.703349 5.360541 14.939760 0.000000 0.000000 0.000000 25.941239 25.715728 6.448246 -0.014074 -0.765733 2.104452 0.882660 -21.261678 -22.491657 -0.024117 -1.002968 2.756901 6.195983 1.926633 -3.224491 3.028393 2.911081 -9.773018 -0.362649 1.111320 -8.375696 -15.500655 -13.256429 -0.962682 10.830738 -19.714272 21.237532 4.126886 -9.779593 9.489812 0.000000 0.000000 0.000000 -6.277849 13.357113 0.398740 7.552788 -12.825387 0.850094 16.705279 41.579865 8.037671 0.000000 0.000000 0.000000 -7.125000 0.000000 0.000000 -7.349809 21.619198 -4.158443 0.000000 0.000000 0.000000 2.095465 13.811582 -6.869059 -14.352972 -23.237081 -2.965983 10.563876 27.563168 35.294130 0.000000 0.000000 0.000000 7.125000 0.000000 0.000000 48.626888 58.383936 -18.700447
0.004657 17.381085 8.549888 -9.137720 -0.438632 9.508200 0.000000 0.000000 0.000000 -18.495907 -41.119472 25.081445 0.061696 -1.602161 -4.407305 -3.920368 42.614732 -47.516513 0.706509 5.372215 14.973294 0.000000 0.000000 0.000000 25.911407 25.811846 6.491075 -0.014247 -0.770529 2.117573 0.893884 -21.306652 -22.461149 -0.019191 -0.894638 2.458953 6.110201 1.938769 -3.225207 2.999230 2.922324 -9.753109 -0.346433 1.122878 -8.353189 -15.446946 -13.220506 -0.968042 10.888210 -19.672885 21.183734 4.145947 -9.752491 9.465589 0.000000 0.000000 0.000000 -6.218085 13.373180 0.508732 7.558372 -12.834449 0.851290 16.764343 41.559214 7.784282 0.000000 0.000000 0.000000 -7.125000 0.000000 0.000000 -7.312848 21.878240 -4.093738 0.000000 0.000000 0.000000 2.081847 13.855586 -6.819969 -14.364921 -23.253959 -2.970628 10.532428 27.723030 35.206851 0.000000 0.000000 0.000000 7.125000 0.000000 0.000000 48.501032 58.329721 -18.570023
0.001066 17.377990 8.544400 -9.156104 -0.492107 9.584421 0.000000 0.000000 0.000000 -18.347781 -41.083912 24.918511 0.061957 -1.605902 -4.417728 -4.007415 42.697446 -47.384749 0.680803 5.275547 14.696091 0.000000 0.000000 0.000000 25.895108 25.857647 6.418768 -0.013481 -0.749668 2.060226 0.890761 -21.281796 -22.443831 -0.019262 -0.896376 2.463760 6.143938 1.998547 -3.310672 2.961747 2.989518 -9.706884 -0.403821 1.155294 -8.245054 -15.503659 -13.269203 -0.898700 11.091135 -19.764068 20.934581 4.214582 -9.788547 9.407484 0.000000 0.000000 0.000000 -6.137091 13.368967 0.155817 7.587893 -12.882678 0.857876 16.814587 41.194497 7.532810 0.000000 0.000000 0.000000 -7.125000 0.000000 0.000000 -7.282435 22.136157 -4.033444 0.000000 0.000000 0.000000 2.075232 13.772608 -6.752808 -14.337707 -23.215497 -2.959942 10.510336 27.741174 35.397259 0.000000 0.000000 0.000000 7.125000 0.000000 0.000000 48.695471 58.468519 -18.838949
-0.004733 17.376193 8.538538 -9.260419 -0.446886 9.661993 0.000000 0.000000 0.000000 -18.415877 -41.513310 25.255106 0.064369 -1.636796 -4.502882 -3.870523 42.822678 -48.095819 0.728471 5.453330 15.206207 0.000000 0.000000 0.000000 26.049653 26.046925 6.487695 -0.011600 -0.696631 1.914462 0.933389 -21.534162 -22.495288 -0.020316 -0.921342 2.532347 6.246092 1.969410 -3.293707 3.044254 2.957884 -9.688464 -0.372435 1.136032 -8.237886 -15.724372 -13.232502 -1.071807 11.210673 -19.712948 21.047175 4.279068 -9.761867 9.508781 0.000000 0.000000 0.000000 -6.319375 13.268011 0.704873 7.564005 -12.843661 0.852583 16.824984 41.547156 7.711355 0.000000 0.000000 0.000000 -7.125000 0.000000 0.000000 -7.270511 21.950875 -4.057661 0.000000 0.000000 0.000000 2.022103 13.735221 -6.687336 -14.338796 -23.216926 -2.960345 10.637180 27.646037 35.516770 0.000000 0.000000 0.000000 7.125000 0.000000 0.000000 48.943066 58.523159 -19.033893
